<svg xmlns="http://www.w3.org/2000/svg" xmlns:xlink="http://www.w3.org/1999/xlink" width="500" zoomAndPan="magnify" viewBox="0 0 375 374.999991" height="500" preserveAspectRatio="xMidYMid meet" version="1.0"><defs><g/><clipPath id="1f0d96a018"><path d="M 88.550781 79.644531 L 236.171875 79.644531 L 236.171875 295.886719 L 88.550781 295.886719 Z M 88.550781 79.644531 " clip-rule="nonzero"/></clipPath><clipPath id="4cd8f1ac80"><path d="M 105.800781 79.644531 L 218.921875 79.644531 C 223.5 79.644531 227.886719 81.460938 231.121094 84.695312 C 234.355469 87.929688 236.171875 92.320312 236.171875 96.894531 L 236.171875 278.105469 C 236.171875 282.679688 234.355469 287.070312 231.121094 290.304688 C 227.886719 293.539062 223.5 295.355469 218.921875 295.355469 L 105.800781 295.355469 C 101.226562 295.355469 96.839844 293.539062 93.605469 290.304688 C 90.367188 287.070312 88.550781 282.679688 88.550781 278.105469 L 88.550781 96.894531 C 88.550781 92.320312 90.367188 87.929688 93.605469 84.695312 C 96.839844 81.460938 101.226562 79.644531 105.800781 79.644531 Z M 105.800781 79.644531 " clip-rule="nonzero"/></clipPath></defs><rect x="-37.5" width="450" fill="#ffffff" y="-37.499999" height="449.999989" fill-opacity="1"/><rect x="-37.5" width="450" fill="#f9f9f9" y="-37.499999" height="449.999989" fill-opacity="1"/><g fill="#18181b" fill-opacity="1"><g transform="translate(88.55151, 322.901846)"><g><path d="M 24.765625 0 L 24.765625 -277.328125 L 121.90625 -277.328125 C 155.550781 -277.328125 181.070312 -270.878906 198.46875 -257.984375 C 215.863281 -245.097656 224.5625 -226.210938 224.5625 -201.328125 C 224.5625 -187.734375 221.066406 -175.757812 214.078125 -165.40625 C 207.097656 -155.0625 197.382812 -147.476562 184.9375 -142.65625 C 199.164062 -139.101562 210.375 -131.929688 218.5625 -121.140625 C 226.75 -110.347656 230.84375 -97.140625 230.84375 -81.515625 C 230.84375 -54.847656 222.332031 -34.65625 205.3125 -20.9375 C 188.300781 -7.226562 164.050781 -0.25 132.5625 0 Z M 81.90625 -120.75 L 81.90625 -45.90625 L 130.84375 -45.90625 C 144.3125 -45.90625 154.820312 -49.109375 162.375 -55.515625 C 169.925781 -61.929688 173.703125 -70.789062 173.703125 -82.09375 C 173.703125 -107.488281 160.5625 -120.375 134.28125 -120.75 Z M 81.90625 -161.140625 L 124.1875 -161.140625 C 153.007812 -161.640625 167.421875 -173.128906 167.421875 -195.609375 C 167.421875 -208.179688 163.769531 -217.226562 156.46875 -222.75 C 149.164062 -228.269531 137.644531 -231.03125 121.90625 -231.03125 L 81.90625 -231.03125 Z M 81.90625 -161.140625 "/></g></g></g><g clip-path="url(#1f0d96a018)"><g clip-path="url(#4cd8f1ac80)"><path fill="#18181b" d="M 88.550781 79.644531 L 236.171875 79.644531 L 236.171875 295.308594 L 88.550781 295.308594 Z M 88.550781 79.644531 " fill-opacity="1" fill-rule="nonzero"/></g></g><g fill="#f9f9f9" fill-opacity="1"><g transform="translate(34.571944, 323.33169)"><g><path d="M 25.421875 0 L 25.421875 -284.703125 L 125.140625 -284.703125 C 159.691406 -284.703125 185.894531 -278.085938 203.75 -264.859375 C 221.613281 -251.628906 230.546875 -232.238281 230.546875 -206.6875 C 230.546875 -192.738281 226.957031 -180.453125 219.78125 -169.828125 C 212.613281 -159.203125 202.644531 -151.410156 189.875 -146.453125 C 204.46875 -142.804688 215.96875 -135.441406 224.375 -124.359375 C 232.789062 -113.285156 237 -99.726562 237 -83.6875 C 237 -56.3125 228.265625 -35.582031 210.796875 -21.5 C 193.328125 -7.425781 168.425781 -0.257812 136.09375 0 Z M 84.078125 -123.96875 L 84.078125 -47.125 L 134.34375 -47.125 C 148.15625 -47.125 158.9375 -50.414062 166.6875 -57 C 174.445312 -63.582031 178.328125 -72.675781 178.328125 -84.28125 C 178.328125 -110.351562 164.835938 -123.582031 137.859375 -123.96875 Z M 84.078125 -165.421875 L 127.5 -165.421875 C 157.082031 -165.941406 171.875 -177.742188 171.875 -200.828125 C 171.875 -213.722656 168.125 -223.003906 160.625 -228.671875 C 153.132812 -234.347656 141.304688 -237.1875 125.140625 -237.1875 L 84.078125 -237.1875 Z M 84.078125 -165.421875 "/></g></g></g></svg>