<svg version="1.1" id="Layer_1" xmlns="http://www.w3.org/2000/svg" xmlns:xlink="http://www.w3.org/1999/xlink" x="0px" y="0px"
	 width="100%" viewBox="0 0 512 512" enable-background="new 0 0 512 512" xml:space="preserve">
<path fill="#000000" opacity="1.000000" stroke="none" 
	d="
M201.000000,0.999997 
	C304.928589,1.000000 408.857178,1.000000 513.000000,1.000000 
	C513.000000,108.354675 513.000000,215.709488 512.689514,323.818695 
	C511.996857,324.253876 511.376526,324.000458 511.267487,323.605774 
	C508.852203,314.863617 496.608795,307.806427 488.064056,307.854401 
	C435.910950,308.147339 383.755371,308.000824 331.600616,308.000824 
	C329.832123,308.000824 328.063629,308.000793 325.999939,308.000793 
	C325.999939,305.439026 325.999939,303.466400 325.999939,301.493744 
	C325.999908,227.677277 325.968079,153.860779 326.025665,80.044365 
	C326.037720,64.590706 319.346863,52.096924 308.383545,42.122581 
	C294.882294,29.839233 278.732361,21.819262 261.523895,15.777062 
	C242.558762,9.118054 223.103104,4.948682 203.139389,2.920248 
	C202.369186,2.841992 201.710602,1.665004 201.000000,0.999997 
z"/>
<path fill="#438EFF" opacity="1.000000" stroke="none" 
	d="
M200.531342,0.999997 
	C201.710602,1.665004 202.369186,2.841992 203.139389,2.920248 
	C223.103104,4.948682 242.558762,9.118054 261.523895,15.777062 
	C278.732361,21.819262 294.882294,29.839233 308.383545,42.122581 
	C319.346863,52.096924 326.037720,64.590706 326.025665,80.044365 
	C325.968079,153.860779 325.999908,227.677277 325.999939,301.493744 
	C325.999939,303.466400 325.999939,305.439026 325.999939,308.000793 
	C328.063629,308.000793 329.832123,308.000824 331.600616,308.000824 
	C383.755371,308.000824 435.910950,308.147339 488.064056,307.854401 
	C496.608795,307.806427 508.852203,314.863617 511.267487,323.605774 
	C511.376526,324.000458 511.996857,324.253876 512.689514,324.286560 
	C513.000000,381.687561 513.000000,439.375122 512.700012,497.248199 
	C507.638916,502.114990 502.865997,506.784454 498.147064,511.507812 
	C497.873901,511.781281 498.038910,512.492493 498.000000,513.000000 
	C411.645782,513.000000 325.291534,513.000000 238.752502,512.699463 
	C224.530258,504.952179 221.195450,492.521271 221.906189,477.815125 
	C222.395691,467.686859 222.000122,457.515839 222.000122,447.363922 
	C222.000122,444.959778 222.000122,442.555664 222.000122,440.370636 
	C218.750885,440.681488 216.159912,440.881989 213.580887,441.184326 
	C202.876358,442.439301 192.198227,444.492035 181.467590,444.810944 
	C167.082108,445.238434 152.605530,444.975220 138.263000,443.824921 
	C123.010048,442.601593 107.709976,440.789886 92.714607,437.806824 
	C70.359322,433.359619 49.018860,425.667175 29.857573,412.933533 
	C18.396540,405.317017 8.607456,396.084045 3.350939,382.891785 
	C3.026735,382.078094 1.804448,381.622284 1.000005,381.000000 
	C1.000000,279.312439 1.000000,177.624878 1.267944,75.261948 
	C3.882245,70.664207 7.023576,68.295906 11.829712,69.737000 
	C16.822908,71.234184 18.080545,75.047150 18.062777,79.825699 
	C17.987951,99.948212 18.498262,120.085693 17.871883,140.188950 
	C17.438526,154.097275 23.360647,164.057281 34.027039,172.396820 
	C41.746979,177.179657 48.976768,182.371109 56.913998,186.026367 
	C83.528610,198.282944 111.909119,203.742874 140.962067,204.834915 
	C160.338745,205.563248 179.844681,205.098816 199.191467,203.733139 
	C217.888351,202.413361 236.347427,198.765091 254.348389,191.899658 
	C269.045044,187.147034 282.533997,180.767532 294.107727,170.902237 
	C302.944244,163.370087 308.533508,154.458557 308.220612,142.036865 
	C307.696350,121.227310 307.961334,100.393990 308.141205,79.572800 
	C308.200287,72.734695 306.288086,66.754791 302.092926,61.522903 
	C289.602112,45.945160 272.479523,37.854290 253.719696,31.787159 
	C247.243332,29.691900 241.105469,27.523123 234.804001,26.058184 
	C198.295364,17.570803 161.365158,15.795458 124.199783,20.201279 
	C105.676506,22.397150 87.512421,26.542568 69.614594,33.141449 
	C66.782722,34.087906 64.310791,34.995461 61.849327,35.930553 
	C48.383812,41.046005 43.894459,37.618908 46.030899,23.888748 
	C46.034645,23.932638 45.946671,23.927988 46.169449,24.194368 
	C46.897949,24.029055 47.403675,23.597361 48.251389,23.020134 
	C55.737862,19.931143 62.695427,16.357815 70.064438,14.170918 
	C87.186462,9.089627 104.473953,4.530933 122.371468,2.904727 
	C122.967079,2.850609 123.459488,1.660555 124.000000,1.000000 
	C149.354233,1.000000 174.708450,1.000000 200.531342,0.999997 
M76.640106,415.578247 
	C78.218193,416.081818 79.781151,416.640198 81.376602,417.080902 
	C115.889824,426.613831 151.067795,429.328033 186.665924,426.831177 
	C197.422165,426.076691 208.096207,424.171967 218.815460,422.855652 
	C222.062668,422.456879 223.248169,420.877075 223.020493,417.551300 
	C222.725204,413.238251 222.948532,408.889679 222.948547,404.556396 
	C222.948578,393.589569 222.948547,382.622772 222.948547,371.672333 
	C211.753036,372.891296 201.073105,374.326691 190.346619,375.169342 
	C161.699448,377.419861 133.168625,376.490082 104.812508,371.474640 
	C80.386040,367.154236 57.069691,359.659302 34.861629,347.155212 
	C29.429255,343.234009 23.996880,339.312836 18.029871,335.005737 
	C18.029871,345.257080 18.281145,354.853424 17.958689,364.430420 
	C17.640829,373.870880 21.070812,381.612701 27.484720,388.191010 
	C40.975971,402.027924 57.906445,409.713287 76.640106,415.578247 
M290.285034,270.994232 
	C282.489014,274.722168 274.870667,278.894714 266.863586,282.094513 
	C243.037735,291.615936 218.091934,296.123962 192.596085,298.333038 
	C162.732834,300.920563 133.103836,299.656372 103.620819,294.412384 
	C79.542358,290.129700 56.548206,282.695465 34.735416,270.193176 
	C29.298885,266.302734 23.862352,262.412262 18.031263,258.239441 
	C18.031263,270.642975 18.502922,282.449677 17.909002,294.202515 
	C17.204729,308.139069 23.653160,317.942047 34.455189,326.502350 
	C41.428745,330.695526 48.070309,335.620117 55.430733,338.960938 
	C97.328720,357.978119 141.731964,360.929108 186.859451,358.483917 
	C193.287201,358.135620 199.669067,356.940857 206.943069,356.158875 
	C212.149155,355.416473 217.355255,354.674042 222.950317,353.876160 
	C222.950317,348.231567 223.218948,343.095306 222.887863,337.998016 
	C222.381073,330.195496 224.279968,323.218994 229.498352,316.627838 
	C235.336685,310.392517 242.630600,308.002777 251.042709,308.058044 
	C264.354279,308.145477 277.667511,307.983368 291.913422,308.045044 
	C297.175568,308.045044 302.437744,308.045044 307.711060,308.045044 
	C307.711060,291.117401 307.711060,274.942993 307.711060,258.578156 
	C301.914825,262.831207 296.449799,266.841248 290.285034,270.994232 
M34.277218,249.646164 
	C46.638714,258.992798 60.491131,265.393585 75.184479,270.007416 
	C107.570061,280.176819 140.783768,283.449432 174.625427,282.267426 
	C195.814209,281.527344 216.712250,279.151794 237.264236,273.984375 
	C256.096344,269.249390 274.192139,262.690460 289.977112,250.996460 
	C298.407898,244.750671 306.738495,237.512100 307.589752,226.591415 
	C308.744110,211.782150 307.877045,196.815323 307.877045,181.815262 
	C307.200836,181.974457 306.813751,181.949341 306.608765,182.130402 
	C291.061768,195.865112 272.630707,204.092407 253.081329,210.182449 
	C229.612411,217.493484 205.542099,220.899857 181.025528,222.313828 
	C156.304932,223.739563 131.843109,222.203339 107.487732,218.270279 
	C82.022705,214.158066 57.666206,206.620972 34.686928,193.328995 
	C29.247465,189.459671 23.808001,185.590363 18.031782,181.481491 
	C18.031782,193.408356 18.591391,204.874924 17.890179,216.263855 
	C17.013016,230.510544 23.235270,240.751160 34.277218,249.646164 
M476.012634,325.213379 
	C401.378235,325.187805 326.743835,325.159027 252.109451,325.140656 
	C242.632019,325.138306 239.975067,327.819794 239.974060,337.335815 
	C239.968903,385.981964 239.970184,434.628082 239.972672,483.274231 
	C239.973190,493.536224 242.386307,495.968597 252.555969,495.968781 
	C325.525177,495.970154 398.494354,495.970856 471.463562,495.961578 
	C473.292450,495.961334 475.121338,495.842987 477.873260,495.926971 
	C480.703491,495.943451 483.535706,496.035034 486.363586,495.960999 
	C492.506134,495.800232 495.945740,492.452026 495.951294,486.261139 
	C495.996674,435.810669 495.994232,385.360138 495.953949,334.909637 
	C495.949188,328.954102 492.737183,325.514038 486.884125,325.173126 
	C483.578888,324.980621 480.243652,325.303589 476.012634,325.213379 
z"/>
<path fill="#000000" opacity="1.000000" stroke="none" 
	d="
M1.000005,381.468658 
	C1.804448,381.622284 3.026735,382.078094 3.350939,382.891785 
	C8.607456,396.084045 18.396540,405.317017 29.857573,412.933533 
	C49.018860,425.667175 70.359322,433.359619 92.714607,437.806824 
	C107.709976,440.789886 123.010048,442.601593 138.263000,443.824921 
	C152.605530,444.975220 167.082108,445.238434 181.467590,444.810944 
	C192.198227,444.492035 202.876358,442.439301 213.580887,441.184326 
	C216.159912,440.881989 218.750885,440.681488 222.000122,440.370636 
	C222.000122,442.555664 222.000122,444.959778 222.000122,447.363922 
	C222.000122,457.515839 222.395691,467.686859 221.906189,477.815125 
	C221.195450,492.521271 224.530258,504.952179 238.283844,512.699463 
	C159.093750,513.000000 80.187492,513.000000 1.000000,513.000000 
	C1.000000,469.312836 1.000000,425.625092 1.000005,381.468658 
z"/>
<path fill="#FDFEFF" opacity="1.000000" stroke="none" 
	d="
M46.027157,23.844860 
	C43.894459,37.618908 48.383812,41.046005 61.849327,35.930553 
	C64.310791,34.995461 66.782722,34.087906 69.563721,33.474182 
	C64.429649,37.753632 58.911591,41.634502 53.547935,45.718170 
	C41.506313,54.886154 34.803566,66.664948 34.935543,82.237236 
	C35.173565,110.322121 35.024582,138.410538 34.953793,166.497253 
	C34.949085,168.366257 34.241619,170.233505 33.861023,172.101562 
	C23.360647,164.057281 17.438526,154.097275 17.871883,140.188950 
	C18.498262,120.085693 17.987951,99.948212 18.062777,79.825699 
	C18.080545,75.047150 16.822908,71.234184 11.829712,69.737000 
	C7.023576,68.295906 3.882245,70.664207 1.267944,74.793289 
	C1.000000,72.299988 1.000000,69.599968 1.322116,66.743927 
	C2.092395,65.963394 2.740104,65.401382 2.958240,64.704849 
	C5.486999,56.630207 10.058994,49.847408 16.198103,44.263771 
	C16.340296,46.131065 15.962500,47.661942 16.191515,49.095913 
	C16.792816,52.860889 18.911875,56.107502 22.765306,56.128555 
	C25.682871,56.144501 29.712610,54.952003 31.226215,52.845184 
	C32.749161,50.725372 32.734287,46.432327 31.682499,43.766563 
	C29.826790,39.063255 25.078119,39.614326 20.999142,39.653793 
	C29.431438,34.168674 37.729298,29.006769 46.027157,23.844860 
z"/>
<path fill="#000000" opacity="1.000000" stroke="none" 
	d="
M46.030899,23.888750 
	C37.729298,29.006769 29.431438,34.168674 20.690510,39.752270 
	C19.133490,41.100983 18.019541,42.028004 16.654081,43.017014 
	C16.242153,43.372097 16.081734,43.665195 15.960780,43.953476 
	C16.000244,43.948658 15.954672,43.883186 15.954672,43.883186 
	C10.058994,49.847408 5.486999,56.630207 2.958240,64.704849 
	C2.740104,65.401382 2.092395,65.963394 1.322116,66.293945 
	C1.000000,44.383865 1.000000,22.767729 1.000000,1.000000 
	C41.687443,1.000000 82.375061,1.000000 123.531342,1.000000 
	C123.459488,1.660555 122.967079,2.850609 122.371468,2.904727 
	C104.473953,4.530933 87.186462,9.089627 70.064438,14.170918 
	C62.695427,16.357815 55.737862,19.931143 47.946178,22.962151 
	C46.848213,23.342459 46.397442,23.635223 45.946671,23.927988 
	C45.946671,23.927988 46.034645,23.932638 46.030899,23.888750 
z"/>
<path fill="#000000" opacity="1.000000" stroke="none" 
	d="
M498.472656,513.000000 
	C498.038910,512.492493 497.873901,511.781281 498.147064,511.507812 
	C502.865997,506.784454 507.638916,502.114990 512.700012,497.716858 
	C513.000000,502.924530 513.000000,507.849030 513.000000,513.000000 
	C508.316681,513.000000 503.630981,513.000000 498.472656,513.000000 
z"/>
<path fill="#E7EDFC" opacity="1.000000" stroke="none" 
	d="
M476.950226,495.779724 
	C475.121338,495.842987 473.292450,495.961334 471.463562,495.961578 
	C398.494354,495.970856 325.525177,495.970154 252.555969,495.968781 
	C242.386307,495.968597 239.973190,493.536224 239.972672,483.274231 
	C239.970184,434.628082 239.968903,385.981964 239.974060,337.335815 
	C239.975067,327.819794 242.632019,325.138306 252.109451,325.140656 
	C326.743835,325.159027 401.378235,325.187805 476.550781,325.657166 
	C477.726379,329.486328 478.804352,332.857483 478.913910,336.259857 
	C479.181549,344.571655 479.015228,352.897858 478.998718,361.218231 
	C478.939606,391.002747 478.870178,420.787231 478.552856,450.297791 
	C476.356567,446.154449 473.188080,444.677307 468.919128,444.822357 
	C463.827545,444.995331 458.725647,444.863129 453.139984,444.863129 
	C453.139984,442.410370 453.140015,440.620331 453.139984,438.830292 
	C453.139526,415.873901 453.151489,392.917542 453.130768,369.961151 
	C453.124817,363.395905 449.771210,359.265778 444.608124,359.317627 
	C439.614929,359.367798 436.124115,363.465973 436.113739,369.655640 
	C436.067993,396.937073 436.058685,424.218689 436.119293,451.500031 
	C436.135010,458.577576 439.464539,461.806030 446.589386,461.887543 
	C453.741516,461.969330 460.930481,462.322510 468.032867,461.722809 
	C471.349457,461.442780 474.500000,459.196167 478.067200,458.113342 
	C478.849182,470.886566 480.703278,483.442474 476.950226,495.779724 
M405.254486,375.329742 
	C396.543518,362.615845 383.134674,357.020630 368.966003,360.187408 
	C354.900085,363.331207 344.305603,374.099396 342.914246,389.464142 
	C341.658264,403.333984 341.499512,417.485687 342.716156,431.349945 
	C344.174500,447.968475 355.713104,459.045044 371.942444,461.550323 
	C381.841125,463.078400 390.631500,459.796753 398.699707,453.592255 
	C400.858337,455.656525 402.791351,457.708130 404.934845,459.509277 
	C408.522827,462.524139 413.026093,462.378021 416.257202,459.333435 
	C419.643005,456.143097 419.934906,451.449280 416.942902,447.623718 
	C416.330322,446.840576 415.670319,446.035614 414.871185,445.466949 
	C409.875031,441.911682 409.348236,437.573303 409.888611,431.407379 
	C411.061951,418.018829 410.925110,404.457001 410.369659,391.005432 
	C410.159973,385.927765 407.314819,380.958954 405.254486,375.329742 
M309.539734,458.191925 
	C321.905731,450.650391 327.674805,437.897797 324.481812,425.162415 
	C321.034058,411.411133 310.391754,402.908081 295.519806,402.022217 
	C287.670532,401.554688 282.667328,396.369171 282.830139,388.870087 
	C282.987030,381.642670 287.992340,376.879547 295.868408,376.708771 
	C302.365082,376.567932 308.874817,376.851166 315.363708,376.582703 
	C321.811340,376.315857 325.228851,372.932159 325.097351,367.592133 
	C324.974060,362.586151 321.340851,359.387482 315.214417,359.259430 
	C308.551178,359.120148 301.875061,359.032684 295.217896,359.280579 
	C278.274933,359.911530 265.849915,372.544281 265.748749,389.004395 
	C265.646179,405.688049 277.503113,417.986450 294.714569,419.048767 
	C302.748627,419.544647 307.959198,424.498077 308.051239,431.727386 
	C308.146027,439.167023 302.843811,444.503235 294.620758,444.800201 
	C287.962952,445.040619 281.288818,444.787750 274.624115,444.891602 
	C269.104858,444.977570 265.906219,447.979309 265.777374,452.920319 
	C265.642639,458.084381 268.870026,461.563995 274.427307,461.850159 
	C278.582947,462.064148 282.758484,461.861755 286.924164,461.917572 
	C294.434143,462.018158 301.953918,462.242371 309.539734,458.191925 
z"/>
<path fill="#E7ECFC" opacity="1.000000" stroke="none" 
	d="
M34.027039,172.396820 
	C34.241619,170.233505 34.949085,168.366257 34.953793,166.497253 
	C35.024582,138.410538 35.173565,110.322121 34.935543,82.237236 
	C34.803566,66.664948 41.506313,54.886154 53.547935,45.718170 
	C58.911591,41.634502 64.429649,37.753632 69.928490,33.447990 
	C87.512421,26.542568 105.676506,22.397150 124.199783,20.201279 
	C161.365158,15.795458 198.295364,17.570803 234.804001,26.058184 
	C241.105469,27.523123 247.243332,29.691900 253.775238,32.129066 
	C254.819000,33.358036 255.447754,34.192257 256.284332,34.598499 
	C265.528839,39.087574 273.455719,45.306606 280.355225,52.862896 
	C287.060699,60.206734 291.185791,68.489403 291.077332,78.827957 
	C290.838013,101.637115 291.033600,124.450630 290.957550,147.262039 
	C290.949371,149.710388 290.648590,152.259369 289.922882,154.586838 
	C285.903870,167.476669 276.713318,176.157867 265.966888,183.526520 
	C261.948608,186.281799 257.968658,189.092972 253.971237,191.878647 
	C236.347427,198.765091 217.888351,202.413361 199.191467,203.733139 
	C179.844681,205.098816 160.338745,205.563248 140.962067,204.834915 
	C111.909119,203.742874 83.528610,198.282944 56.913998,186.026367 
	C48.976768,182.371109 41.746979,177.179657 34.027039,172.396820 
M260.386444,116.923996 
	C264.746552,113.607430 269.552246,110.735283 273.384918,106.892632 
	C285.854065,94.390976 285.632324,78.254761 273.344421,65.625977 
	C265.849060,57.922680 256.605682,53.002689 246.797562,49.169231 
	C225.053467,40.670650 202.335144,37.078587 179.097610,35.691555 
	C149.068649,33.899143 119.596878,36.702751 90.763016,45.201550 
	C77.454071,49.124371 64.644997,54.445042 54.343811,64.211952 
	C39.495762,78.289894 40.331017,96.940132 56.101578,110.076225 
	C66.696518,118.901291 79.096390,124.096008 92.102875,127.863098 
	C130.661896,139.031021 169.829590,139.962296 209.235199,133.666519 
	C226.854477,130.851501 244.066254,126.302025 260.386444,116.923996 
z"/>
<path fill="#C9D9FC" opacity="1.000000" stroke="none" 
	d="
M35.095310,193.858765 
	C57.666206,206.620972 82.022705,214.158066 107.487732,218.270279 
	C131.843109,222.203339 156.304932,223.739563 181.025528,222.313828 
	C205.542099,220.899857 229.612411,217.493484 253.081329,210.182449 
	C272.630707,204.092407 291.061768,195.865112 306.608765,182.130402 
	C306.813751,181.949341 307.200836,181.974457 307.877045,181.815262 
	C307.877045,196.815323 308.744110,211.782150 307.589752,226.591415 
	C306.738495,237.512100 298.407898,244.750671 289.977112,250.996460 
	C274.192139,262.690460 256.096344,269.249390 237.264236,273.984375 
	C216.712250,279.151794 195.814209,281.527344 174.625427,282.267426 
	C140.783768,283.449432 107.570061,280.176819 75.184479,270.007416 
	C60.491131,265.393585 46.638714,258.992798 34.422100,249.076294 
	C34.715782,246.707428 34.987614,244.908905 34.994186,243.109406 
	C35.054176,226.692627 35.068001,210.275665 35.095310,193.858765 
z"/>
<path fill="#E7EDFC" opacity="1.000000" stroke="none" 
	d="
M290.980042,307.926880 
	C277.667511,307.983368 264.354279,308.145477 251.042709,308.058044 
	C242.630600,308.002777 235.336685,310.392517 228.754883,316.799744 
	C227.181915,316.979370 226.336441,317.096619 225.525314,316.978302 
	C214.310303,315.342407 204.870239,324.162720 205.910233,336.734680 
	C206.441986,343.162872 206.047836,349.667664 206.072174,356.137817 
	C199.669067,356.940857 193.287201,358.135620 186.859451,358.483917 
	C141.731964,360.929108 97.328720,357.978119 55.430733,338.960938 
	C48.070309,335.620117 41.428745,330.695526 34.558411,325.920959 
	C34.775410,323.533722 34.981266,321.728271 34.988586,319.921997 
	C35.055096,303.520630 35.086937,287.119141 35.128922,270.717682 
	C56.548206,282.695465 79.542358,290.129700 103.620819,294.412384 
	C133.103836,299.656372 162.732834,300.920563 192.596085,298.333038 
	C218.091934,296.123962 243.037735,291.615936 266.863586,282.094513 
	C274.870667,278.894714 282.489014,274.722168 290.640198,271.403839 
	C290.990234,283.851257 290.985138,295.889069 290.980042,307.926880 
z"/>
<path fill="#C9D9FC" opacity="1.000000" stroke="none" 
	d="
M35.274765,347.682220 
	C57.069691,359.659302 80.386040,367.154236 104.812508,371.474640 
	C133.168625,376.490082 161.699448,377.419861 190.346619,375.169342 
	C201.073105,374.326691 211.753036,372.891296 222.948547,371.672333 
	C222.948547,382.622772 222.948578,393.589569 222.948547,404.556396 
	C222.948532,408.889679 222.725204,413.238251 223.020493,417.551300 
	C223.248169,420.877075 222.062668,422.456879 218.815460,422.855652 
	C208.096207,424.171967 197.422165,426.076691 186.665924,426.831177 
	C151.067795,429.328033 115.889824,426.613831 81.376602,417.080902 
	C79.781151,416.640198 78.218193,416.081818 76.207382,415.019470 
	C69.555359,410.658569 63.127575,407.155060 57.161915,402.989655 
	C46.095245,395.262665 37.208614,385.587402 35.529129,371.585541 
	C34.585770,363.720764 35.304726,355.656555 35.274765,347.682220 
z"/>
<path fill="#C8D8FC" opacity="1.000000" stroke="none" 
	d="
M478.804657,450.571747 
	C478.870178,420.787231 478.939606,391.002747 478.998718,361.218231 
	C479.015228,352.897858 479.181549,344.571655 478.913910,336.259857 
	C478.804352,332.857483 477.726379,329.486328 477.005432,325.747681 
	C480.243652,325.303589 483.578888,324.980621 486.884125,325.173126 
	C492.737183,325.514038 495.949188,328.954102 495.953949,334.909637 
	C495.994232,385.360138 495.996674,435.810669 495.951294,486.261139 
	C495.945740,492.452026 492.506134,495.800232 486.363586,495.960999 
	C483.535706,496.035034 480.703491,495.943451 477.411743,495.853333 
	C480.703278,483.442474 478.849182,470.886566 478.140198,457.739685 
	C478.182770,454.919647 478.493713,452.745697 478.804657,450.571747 
z"/>
<path fill="#C9D9FC" opacity="1.000000" stroke="none" 
	d="
M254.348389,191.899658 
	C257.968658,189.092972 261.948608,186.281799 265.966888,183.526520 
	C276.713318,176.157867 285.903870,167.476669 289.922882,154.586838 
	C290.648590,152.259369 290.949371,149.710388 290.957550,147.262039 
	C291.033600,124.450630 290.838013,101.637115 291.077332,78.827957 
	C291.185791,68.489403 287.060699,60.206734 280.355225,52.862896 
	C273.455719,45.306606 265.528839,39.087574 256.284332,34.598499 
	C255.447754,34.192257 254.819000,33.358036 254.038177,32.380661 
	C272.479523,37.854290 289.602112,45.945160 302.092926,61.522903 
	C306.288086,66.754791 308.200287,72.734695 308.141205,79.572800 
	C307.961334,100.393990 307.696350,121.227310 308.220612,142.036865 
	C308.533508,154.458557 302.944244,163.370087 294.107727,170.902237 
	C282.533997,180.767532 269.045044,187.147034 254.348389,191.899658 
z"/>
<path fill="#FCFDFF" opacity="1.000000" stroke="none" 
	d="
M35.068195,347.418701 
	C35.304726,355.656555 34.585770,363.720764 35.529129,371.585541 
	C37.208614,385.587402 46.095245,395.262665 57.161915,402.989655 
	C63.127575,407.155060 69.555359,410.658569 75.934494,414.779205 
	C57.906445,409.713287 40.975971,402.027924 27.484720,388.191010 
	C21.070812,381.612701 17.640829,373.870880 17.958689,364.430420 
	C18.281145,354.853424 18.029871,345.257080 18.029871,335.005737 
	C23.996880,339.312836 29.429255,343.234009 35.068195,347.418701 
z"/>
<path fill="#FDFEFF" opacity="1.000000" stroke="none" 
	d="
M34.932167,270.455444 
	C35.086937,287.119141 35.055096,303.520630 34.988586,319.921997 
	C34.981266,321.728271 34.775410,323.533722 34.381622,325.640198 
	C23.653160,317.942047 17.204729,308.139069 17.909002,294.202515 
	C18.502922,282.449677 18.031263,270.642975 18.031263,258.239441 
	C23.862352,262.412262 29.298885,266.302734 34.932167,270.455444 
z"/>
<path fill="#FDFEFF" opacity="1.000000" stroke="none" 
	d="
M34.891121,193.593872 
	C35.068001,210.275665 35.054176,226.692627 34.994186,243.109406 
	C34.987614,244.908905 34.715782,246.707428 34.245934,248.788879 
	C23.235270,240.751160 17.013016,230.510544 17.890179,216.263855 
	C18.591391,204.874924 18.031782,193.408356 18.031782,181.481491 
	C23.808001,185.590363 29.247465,189.459671 34.891121,193.593872 
z"/>
<path fill="#CAD9FC" opacity="1.000000" stroke="none" 
	d="
M291.446716,307.985962 
	C290.985138,295.889069 290.990234,283.851257 290.990051,271.332336 
	C296.449799,266.841248 301.914825,262.831207 307.711060,258.578156 
	C307.711060,274.942993 307.711060,291.117401 307.711060,308.045044 
	C302.437744,308.045044 297.175568,308.045044 291.446716,307.985962 
z"/>
<path fill="#C9D8FC" opacity="1.000000" stroke="none" 
	d="
M206.507629,356.148346 
	C206.047836,349.667664 206.441986,343.162872 205.910233,336.734680 
	C204.870239,324.162720 214.310303,315.342407 225.525314,316.978302 
	C226.336441,317.096619 227.181915,316.979370 228.462509,316.964050 
	C224.279968,323.218994 222.381073,330.195496 222.887863,337.998016 
	C223.218948,343.095306 222.950317,348.231567 222.950317,353.876160 
	C217.355255,354.674042 212.149155,355.416473 206.507629,356.148346 
z"/>
<path fill="#FDFEFF" opacity="1.000000" stroke="none" 
	d="
M46.169449,24.194368 
	C46.397442,23.635223 46.848213,23.342459 47.604195,23.107681 
	C47.403675,23.597361 46.897949,24.029055 46.169449,24.194368 
z"/>
<path fill="#4790FF" opacity="1.000000" stroke="none" 
	d="
M16.905592,42.955025 
	C18.019541,42.028004 19.133490,41.100983 20.556070,40.075485 
	C25.078119,39.614326 29.826790,39.063255 31.682499,43.766563 
	C32.734287,46.432327 32.749161,50.725372 31.226215,52.845184 
	C29.712610,54.952003 25.682871,56.144501 22.765306,56.128555 
	C18.911875,56.107502 16.792816,52.860889 16.191515,49.095913 
	C15.962500,47.661942 16.340296,46.131065 16.198103,44.263771 
	C15.954672,43.883186 16.000244,43.948658 16.282883,44.078529 
	C16.678877,43.790607 16.792234,43.372814 16.905592,42.955025 
z"/>
<path fill="#FDFEFF" opacity="1.000000" stroke="none" 
	d="
M16.654081,43.017014 
	C16.792234,43.372814 16.678877,43.790607 16.243418,44.083344 
	C16.081734,43.665195 16.242153,43.372097 16.654081,43.017014 
z"/>
<path fill="#458FFF" opacity="1.000000" stroke="none" 
	d="
M405.462769,375.635132 
	C407.314819,380.958954 410.159973,385.927765 410.369659,391.005432 
	C410.925110,404.457001 411.061951,418.018829 409.888611,431.407379 
	C409.348236,437.573303 409.875031,441.911682 414.871185,445.466949 
	C415.670319,446.035614 416.330322,446.840576 416.942902,447.623718 
	C419.934906,451.449280 419.643005,456.143097 416.257202,459.333435 
	C413.026093,462.378021 408.522827,462.524139 404.934845,459.509277 
	C402.791351,457.708130 400.858337,455.656525 398.699707,453.592255 
	C390.631500,459.796753 381.841125,463.078400 371.942444,461.550323 
	C355.713104,459.045044 344.174500,447.968475 342.716156,431.349945 
	C341.499512,417.485687 341.658264,403.333984 342.914246,389.464142 
	C344.305603,374.099396 354.900085,363.331207 368.966003,360.187408 
	C383.134674,357.020630 396.543518,362.615845 405.462769,375.635132 
M380.872223,435.528412 
	C380.402618,435.057007 379.897034,434.615967 379.469025,434.109406 
	C376.235504,430.282196 375.885895,425.530334 378.581757,422.303741 
	C381.616608,418.671570 386.040802,418.327148 390.649841,421.364044 
	C391.408447,421.863953 392.167419,422.363251 393.452118,423.209045 
	C393.572662,421.285065 393.731628,420.014160 393.719025,418.744995 
	C393.630035,409.770477 394.053375,400.746521 393.242249,391.835785 
	C392.393768,382.514648 384.573547,376.050842 376.084106,376.376312 
	C367.208191,376.716583 359.869171,383.228516 359.435669,392.515564 
	C358.877838,404.466248 358.986115,416.473053 359.406311,428.434631 
	C359.642487,435.157104 363.140228,440.448425 369.601044,443.219086 
	C375.325562,445.674103 380.798462,445.326050 387.766144,440.196289 
	C385.289215,438.586365 383.336609,437.317230 380.872223,435.528412 
z"/>
<path fill="#458FFF" opacity="1.000000" stroke="none" 
	d="
M309.211426,458.378113 
	C301.953918,462.242371 294.434143,462.018158 286.924164,461.917572 
	C282.758484,461.861755 278.582947,462.064148 274.427307,461.850159 
	C268.870026,461.563995 265.642639,458.084381 265.777374,452.920319 
	C265.906219,447.979309 269.104858,444.977570 274.624115,444.891602 
	C281.288818,444.787750 287.962952,445.040619 294.620758,444.800201 
	C302.843811,444.503235 308.146027,439.167023 308.051239,431.727386 
	C307.959198,424.498077 302.748627,419.544647 294.714569,419.048767 
	C277.503113,417.986450 265.646179,405.688049 265.748749,389.004395 
	C265.849915,372.544281 278.274933,359.911530 295.217896,359.280579 
	C301.875061,359.032684 308.551178,359.120148 315.214417,359.259430 
	C321.340851,359.387482 324.974060,362.586151 325.097351,367.592133 
	C325.228851,372.932159 321.811340,376.315857 315.363708,376.582703 
	C308.874817,376.851166 302.365082,376.567932 295.868408,376.708771 
	C287.992340,376.879547 282.987030,381.642670 282.830139,388.870087 
	C282.667328,396.369171 287.670532,401.554688 295.519806,402.022217 
	C310.391754,402.908081 321.034058,411.411133 324.481812,425.162415 
	C327.674805,437.897797 321.905731,450.650391 309.211426,458.378113 
z"/>
<path fill="#448EFF" opacity="1.000000" stroke="none" 
	d="
M478.552856,450.297791 
	C478.493713,452.745697 478.182770,454.919647 477.798828,457.467224 
	C474.500000,459.196167 471.349457,461.442780 468.032867,461.722809 
	C460.930481,462.322510 453.741516,461.969330 446.589386,461.887543 
	C439.464539,461.806030 436.135010,458.577576 436.119293,451.500031 
	C436.058685,424.218689 436.067993,396.937073 436.113739,369.655640 
	C436.124115,363.465973 439.614929,359.367798 444.608124,359.317627 
	C449.771210,359.265778 453.124817,363.395905 453.130768,369.961151 
	C453.151489,392.917542 453.139526,415.873901 453.139984,438.830292 
	C453.140015,440.620331 453.139984,442.410370 453.139984,444.863129 
	C458.725647,444.863129 463.827545,444.995331 468.919128,444.822357 
	C473.188080,444.677307 476.356567,446.154449 478.552856,450.297791 
z"/>
<path fill="#448EFF" opacity="1.000000" stroke="none" 
	d="
M260.061462,117.090149 
	C244.066254,126.302025 226.854477,130.851501 209.235199,133.666519 
	C169.829590,139.962296 130.661896,139.031021 92.102875,127.863098 
	C79.096390,124.096008 66.696518,118.901291 56.101578,110.076225 
	C40.331017,96.940132 39.495762,78.289894 54.343811,64.211952 
	C64.644997,54.445042 77.454071,49.124371 90.763016,45.201550 
	C119.596878,36.702751 149.068649,33.899143 179.097610,35.691555 
	C202.335144,37.078587 225.053467,40.670650 246.797562,49.169231 
	C256.605682,53.002689 265.849060,57.922680 273.344421,65.625977 
	C285.632324,78.254761 285.854065,94.390976 273.384918,106.892632 
	C269.552246,110.735283 264.746552,113.607430 260.061462,117.090149 
M166.499649,120.104500 
	C173.962067,119.758522 181.431519,119.522087 188.885483,119.044197 
	C205.372330,117.987190 221.595566,115.096748 236.901474,108.934372 
	C245.248749,105.573624 253.313797,100.899109 260.523041,95.503555 
	C267.219238,90.492020 266.749725,83.263168 260.903168,77.392601 
	C253.654831,70.114479 244.494080,66.076736 235.005325,62.932018 
	C206.919556,53.623985 178.048248,51.061150 148.577408,52.759525 
	C130.931488,53.776443 113.575493,56.016533 96.655640,61.080330 
	C85.459312,64.431190 74.635696,68.763641 65.828865,76.814217 
	C59.366772,82.721397 59.310097,88.788902 65.232079,94.909653 
	C74.150261,104.127136 85.801132,108.293037 97.577896,111.835892 
	C119.697464,118.490227 142.446701,120.731178 166.499649,120.104500 
z"/>
<path fill="#E4EBFC" opacity="1.000000" stroke="none" 
	d="
M381.128113,435.788269 
	C383.336609,437.317230 385.289215,438.586365 387.766144,440.196289 
	C380.798462,445.326050 375.325562,445.674103 369.601044,443.219086 
	C363.140228,440.448425 359.642487,435.157104 359.406311,428.434631 
	C358.986115,416.473053 358.877838,404.466248 359.435669,392.515564 
	C359.869171,383.228516 367.208191,376.716583 376.084106,376.376312 
	C384.573547,376.050842 392.393768,382.514648 393.242249,391.835785 
	C394.053375,400.746521 393.630035,409.770477 393.719025,418.744995 
	C393.731628,420.014160 393.572662,421.285065 393.452118,423.209045 
	C392.167419,422.363251 391.408447,421.863953 390.649841,421.364044 
	C386.040802,418.327148 381.616608,418.671570 378.581757,422.303741 
	C375.885895,425.530334 376.235504,430.282196 379.469025,434.109406 
	C379.897034,434.615967 380.402618,435.057007 381.128113,435.788269 
z"/>
<path fill="#A4C2F7" opacity="1.000000" stroke="none" 
	d="
M165.999741,120.106430 
	C142.446701,120.731178 119.697464,118.490227 97.577896,111.835892 
	C85.801132,108.293037 74.150261,104.127136 65.232079,94.909653 
	C59.310097,88.788902 59.366772,82.721397 65.828865,76.814217 
	C74.635696,68.763641 85.459312,64.431190 96.655640,61.080330 
	C113.575493,56.016533 130.931488,53.776443 148.577408,52.759525 
	C178.048248,51.061150 206.919556,53.623985 235.005325,62.932018 
	C244.494080,66.076736 253.654831,70.114479 260.903168,77.392601 
	C266.749725,83.263168 267.219238,90.492020 260.523041,95.503555 
	C253.313797,100.899109 245.248749,105.573624 236.901474,108.934372 
	C221.595566,115.096748 205.372330,117.987190 188.885483,119.044197 
	C181.431519,119.522087 173.962067,119.758522 165.999741,120.106430 
z"/>
</svg>